# xmcd CD database file
#
# Track frame offsets:
#	150
#	12610
#	24867
#	39622
#	52097
#	61959
#	73169
#	83323
#	93476
#	105776
#	116293
#	128442
#	140844
#	149133
#	159714
#	173831
#	185823
#	196712
#	205971
#	218809
#
# Disc length: 3047 seconds
#
# Revision: 3
# Processed by: cddbd v1.5.2PL0 Copyright (c) Steve Scherf et al.
# Submitted via: CDex 1.77
#
DISCID=1e0be514
DTITLE=Various Artist - No Stones Unturned # 1
DYEAR=1900
DGENRE=Blues
TTITLE0=Howlin' Wolf - Little Baby
TTITLE1=Bo Diddley - Road Runner
TTITLE2=Muddy Waters - Still A Fool
TTITLE3=Wynonie Harris - Confessin' The Blues
TTITLE4=Buddy Holly - Learning The Game
TTITLE5=Solomon Burke - Cry To Me 
TTITLE6=Chuck Berry - Memphis Tennessee
TTITLE7=Dale Hawkins - Suzie Q
TTITLE8=Muddy Waters - I Can't Be Satisfied
TTITLE9=Lightnin' Slim - Hoo Doo Blues
TTITLE10=Jimmy Reed - Honest I Do
TTITLE11=Arthur Alexander - You Better Move On
TTITLE12=Chuck Berry - Come On
TTITLE13=Robert Johnson - Love In Vain
TTITLE14=Big Bill Broonzy, Sonny Terry and Brownie Mcgee - Keys To The Highway
TTITLE15=Hank Snow - I'm Moving On
TTITLE16=Little Walter - Just Your Fool 
TTITLE17=Chuck Berry - Don't You Lie To Me
TTITLE18=Will Bradley and Johnny Guarnieri Band - Down The Road A Piece
TTITLE19=Staple Singers - This May Be The Last Time
EXTD=
EXTT0=
EXTT1=
EXTT2=
EXTT3=
EXTT4=
EXTT5=
EXTT6=
EXTT7=
EXTT8=
EXTT9=
EXTT10=
EXTT11=
EXTT12=
EXTT13=
EXTT14=
EXTT15=
EXTT16=
EXTT17=
EXTT18=
EXTT19=
PLAYORDER=
